<?xml version="1.0"?>
<svg xmlns:rdf="http://www.w3.org/1999/02/22-rdf-syntax-ns#" xmlns="http://www.w3.org/2000/svg" xmlns:cc="http://creativecommons.org/ns#" xmlns:xlink="http://www.w3.org/1999/xlink" xmlns:dc="http://purl.org/dc/elements/1.1/" xmlns:svg="http://www.w3.org/2000/svg" id="svg39605" viewBox="0 0 511.86 491.43" version="1.1">
  <defs id="defs39607">
    <linearGradient id="linearGradient11197" x1="-19645" gradientUnits="userSpaceOnUse" y1="168.56" gradientTransform="matrix(4.8085 0 0 4.8085 94832 200.4)" x2="-19647" y2="157.99">
      <stop id="stop10761" stop-color="#803300" offset="0"/>
      <stop id="stop10763" stop-color="#a40" stop-opacity="0" offset="1"/>
    </linearGradient>
    <linearGradient id="linearGradient11195" x1="-19657" gradientUnits="userSpaceOnUse" y1="144.61" gradientTransform="matrix(4.8085 0 0 4.8085 94854 197.21)" x2="-19650" y2="153.74">
      <stop id="stop10740" stop-color="#f00" offset="0"/>
      <stop id="stop10742" stop-color="#f00" stop-opacity="0" offset="1"/>
    </linearGradient>
    <linearGradient id="linearGradient11193" x1="-19638" gradientUnits="userSpaceOnUse" y1="160.17" gradientTransform="matrix(4.8085 0 0 4.8085 94832 200.4)" x2="-19645" y2="150.71">
      <stop id="stop10771" stop-color="#2b1100" offset="0"/>
      <stop id="stop10773" stop-color="#2b1100" stop-opacity="0" offset="1"/>
    </linearGradient>
    <linearGradient id="linearGradient11191" x1="-19653" gradientUnits="userSpaceOnUse" y1="143.61" gradientTransform="matrix(4.8085 0 0 4.8085 94855 195.3)" x2="-19649" y2="151.77">
      <stop id="stop10751" stop-color="#f00" offset="0"/>
      <stop id="stop10753" stop-color="#f00" stop-opacity="0" offset="1"/>
    </linearGradient>
    <radialGradient id="radialGradient11189" gradientUnits="userSpaceOnUse" cy="120.5" cx="-19672" gradientTransform="matrix(-18.641 -27.657 1.9096 -1.2871 -3.6682e5 -5.4326e5)" r="28.705">
      <stop id="stop10712" stop-color="#ffefb5" offset="0"/>
      <stop id="stop10714" stop-color="#ffefb5" stop-opacity="0" offset="1"/>
    </radialGradient>
    <radialGradient id="radialGradient11187" gradientUnits="userSpaceOnUse" cy="77.422" cx="-19639" gradientTransform="matrix(-4.8085 -4.0411 1.3289 -1.5812 -94191 -78574)" r="53.22">
      <stop id="stop10725" stop-color="#734e21" offset="0"/>
      <stop id="stop10727" stop-color="#734e21" stop-opacity="0" offset="1"/>
    </radialGradient>
  </defs>
  <g id="layer1" transform="translate(-91.016 -519.5)">
    <path id="path11099" fill="#513622" d="m567.05 798.4c22.998 2.1239 6.7024 9.8616 4.2056 15.627-69.742 40.345-177.7 89.914-268.07 135.24-13.222 1.7999-23.242-2.8018-30.055-13.824l-169.8-298.44c-7.8065-22.374-24.252-44.171 2.1028-68.821 70.641-16.375 79.729-34.443 227.8-48.687 87.553 60.609 178.3 135.04 268.07 205.26 3.9837 8.8751 0.11096 11.85-8.7109 11.119-12.19 17.728-23.597 36.118-25.544 62.511z"/>
    <path id="path11101" opacity=".63478" fill="url(#radialGradient11187)" d="m567.05 798.4c22.998 2.1239 6.7024 9.8616 4.2056 15.627-69.742 40.345-177.7 89.914-268.07 135.24-13.222 1.7999-23.242-2.8018-30.055-13.824l-169.8-298.44c-7.8065-22.374-24.252-44.171 2.1028-68.821 70.641-16.375 79.729-34.443 227.8-48.687 87.553 60.609 178.3 135.04 268.07 205.26 3.9837 8.8751 0.11096 11.85-8.7109 11.119-12.19 17.728-23.597 36.118-25.544 62.511z"/>
    <path id="path11103" fill="#634218" d="m570.66 806.81-274.09 133.44c-13.383-1.2483-15.219-47.912 23.442-64.915l272.89-139.45c-25.256 43.464-25.434 59.072-22.238 70.925z"/>
    <path id="path11105" fill="#bd8431" d="m363.29 848.89-45.679 27.048c-15.041 7.6783-24.396 15.831-25.844 24.643-0.56592 9.7451-0.85998 18.948-3.6064 33.059 6.5137 6.0809 14.132 3.38 21.749 0.60477l52.493-26.776 4.6717 9.775-63.112 31.664c-14.709 5.14-21.422-0.72292-27.198-7.863l-171.83-298.63c-26.588-50.729-8.4945-65.067 0.38838-74.231l31.98-10.82 226.01 291.52z"/>
    <path id="path11107" fill="url(#radialGradient11189)" d="m363.29 848.89-45.679 27.048c-15.041 7.6783-24.396 15.831-25.844 24.643-0.56592 9.7451-0.85998 18.948-3.6064 33.059 6.5137 6.0809 14.132 3.38 21.749 0.60477l52.493-26.776 4.6717 9.775-63.112 31.664c-14.709 5.14-21.422-0.72292-27.198-7.863l-171.83-298.63c-26.588-50.729-8.4945-65.067 0.38838-74.231l31.98-10.82 226.01 291.52z"/>
    <path id="path11109" fill="#c63900" d="m338.81 888.34c21.749 23.342 12.711 44.027 40.375 82.241 0 0 6.8078-8.9256 9.3545-8.9256s15.724 0.84996 15.724 0.84996c-37.473-48.052-9.0826-44.574-48.026-82.877l-17.427 8.7125z"/>
    <path id="path11111" opacity=".54783" fill="url(#linearGradient11191)" d="m338.81 888.34c21.749 23.342 12.711 44.027 40.375 82.241 0 0 6.8078-8.9256 9.3545-8.9256s15.724 0.84996 15.724 0.84996c-37.473-48.052-9.0826-44.574-48.026-82.877l-17.427 8.7125z"/>
    <path id="path11113" opacity=".54783" fill="url(#linearGradient11193)" d="m338.81 888.34c21.749 23.342 12.711 44.027 40.375 82.241 0 0 6.8078-8.9256 9.3545-8.9256s15.724 0.84996 15.724 0.84996c-37.473-48.052-9.0826-44.574-48.026-82.877l-17.427 8.7125z"/>
    <path id="path11115" fill="#d45500" d="m322.33 896.56c37.473 28.442 8.9661 68.309 32.574 108.03 0 0 2.2082-7.9552 4.7549-7.9552s6.9964 14.3 6.9964 14.3c4.0114-24.375 9.643-105.67-26.898-123.08l-17.427 8.7131z"/>
    <path id="path11117" opacity=".66522" fill="url(#linearGradient11195)" d="m322.33 896.56c37.473 28.442 8.9661 68.309 32.574 108.03 0 0 2.2082-7.9552 4.7549-7.9552s6.9964 14.3 6.9964 14.3c4.0114-24.375 9.643-105.67-26.898-123.08l-17.427 8.7131z"/>
    <path id="path11119" opacity=".66522" fill="url(#linearGradient11197)" d="m322.33 896.56c37.473 28.442 8.9661 68.309 32.574 108.03 0 0 2.2082-7.9552 4.7549-7.9552s6.9964 14.3 6.9964 14.3c4.0114-24.375 9.643-105.67-26.898-123.08l-17.427 8.7131z"/>
  </g>
  <metadata>
    <rdf:RDF>
      <cc:Work>
        <dc:format>image/svg+xml</dc:format>
        <dc:type rdf:resource="http://purl.org/dc/dcmitype/StillImage"/>
        <cc:license rdf:resource="http://creativecommons.org/licenses/publicdomain/"/>
        <dc:publisher>
          <cc:Agent rdf:about="http://openclipart.org/">
            <dc:title>Openclipart</dc:title>
          </cc:Agent>
        </dc:publisher>
        <dc:title>Registry book</dc:title>
        <dc:date>2010-08-01T08:48:40</dc:date>
        <dc:description>book, clip art, clipart, registry book, wedding, </dc:description>
        <dc:source>http://openclipart.org/detail/75799/registry-book-by-wakro</dc:source>
        <dc:creator>
          <cc:Agent>
            <dc:title>wakro</dc:title>
          </cc:Agent>
        </dc:creator>
        <dc:subject>
          <rdf:Bag>
            <rdf:li>book</rdf:li>
            <rdf:li>clip art</rdf:li>
            <rdf:li>clipart</rdf:li>
            <rdf:li>registry book</rdf:li>
            <rdf:li>wedding</rdf:li>
          </rdf:Bag>
        </dc:subject>
      </cc:Work>
      <cc:License rdf:about="http://creativecommons.org/licenses/publicdomain/">
        <cc:permits rdf:resource="http://creativecommons.org/ns#Reproduction"/>
        <cc:permits rdf:resource="http://creativecommons.org/ns#Distribution"/>
        <cc:permits rdf:resource="http://creativecommons.org/ns#DerivativeWorks"/>
      </cc:License>
    </rdf:RDF>
  </metadata>
</svg>
